<svg xmlns="http://www.w3.org/2000/svg" viewBox="0 0 32 32" fill="none">
  <g transform="scale(0.6666667)">
    <defs>
      <radialGradient id="fv-core" cx="42%" cy="38%" r="62%" fx="38%" fy="32%">
        <stop offset="0%" stop-color="#818CF8"/>
        <stop offset="38%" stop-color="#6366F1"/>
        <stop offset="72%" stop-color="#7B61B8"/>
        <stop offset="100%" stop-color="#5B4D8A"/>
      </radialGradient>
      <radialGradient id="fv-spec" cx="32%" cy="28%" r="45%">
        <stop offset="0%" stop-color="#FFFFFF" stop-opacity="0.55"/>
        <stop offset="100%" stop-color="#FFFFFF" stop-opacity="0"/>
      </radialGradient>
      <clipPath id="fv-clip">
        <circle cx="24" cy="24" r="21"/>
      </clipPath>
    </defs>
    <circle cx="24" cy="24" r="20.5" fill="url(#fv-core)"/>
    <circle cx="24" cy="24" r="20.5" fill="url(#fv-spec)"/>
    <circle cx="24" cy="24" r="19.82" fill="none" stroke="#FDE68A" stroke-width="1.2" stroke-opacity="0.92"/>
    <circle cx="24" cy="24" r="18.73" fill="none" stroke="#FBBF24" stroke-width="0.58" stroke-opacity="0.58"/>
    <g clip-path="url(#fv-clip)">
      <g transform="translate(24 24) scale(1.553) translate(-24 -24)">
        <path d="M15.5 19.5 19.2 22.8 24 21.2 28.4 24.2 32.5 20.8" stroke="#FFFFFF" stroke-width="0.95" stroke-linecap="round" stroke-linejoin="round" opacity="0.55"/>
        <g transform="translate(20.04 26.91)">
          <path d="M0 -4.6 L1.22 -1.35 L4.6 0 L1.22 1.35 L0 4.6 L-1.22 1.35 L-4.6 0 L-1.22 -1.35Z" fill="#F59E0B" fill-opacity="0.22"/>
          <path d="M0 -2.85 L0.76 -0.86 L2.85 0 L0.76 0.86 L0 2.85 L-0.76 0.86 L-2.85 0 L-0.76 -0.86Z" fill="#F59E0B"/>
        </g>
        <g transform="translate(29.81 24.26)">
          <path d="M0 -4.1 L1.1 -1.24 L4.1 0 L1.1 1.24 L0 4.1 L-1.1 1.24 L-4.1 0 L-1.1 -1.24Z" fill="#F59E0B" fill-opacity="0.18"/>
          <path d="M0 -2.65 L0.69 -0.8 L2.65 0 L0.69 0.8 L0 2.65 L-0.69 0.8 L-2.65 0 L-0.69 -0.8Z" fill="#F59E0B"/>
        </g>
      </g>
    </g>
  </g>
</svg>
